<svg xmlns="http://www.w3.org/2000/svg" viewBox="0 0 400 400" version="1.1"
    width="64" height="64">
    <g transform="rotate(0)" transform-origin="200 200">
		<animateTransform attributeName="transform" 
			type="rotate" from="0" to="330" dur="1.2s"
			calcMode="discrete"
			values="0;30;60;90;120;150;180;210;240;270;300;330"
			repeatCount="indefinite"
        />
        <rect width="36" height="110" x="182" y="0" rx="20" ry="20"
            fill="rgba(24,144,255,1)"
            stroke="none"
            stroke-width="0" 
            transform="rotate(0)"
            transform-origin="200 200"
        />
        <rect width="36" height="110" x="182" y="0" rx="20" ry="20"
            fill="rgba(24,144,255,.92)"
            stroke="none"
            stroke-width="0" 
            transform="rotate(-30)" 
            transform-origin="200 200"
        />
        <rect width="36" height="110" x="182" y="0" rx="20" ry="20"
            fill="rgba(24,144,255,.84)"
            stroke="none"
            stroke-width="0" 
            transform="rotate(-60)" 
            transform-origin="200 200"
        />
        <rect width="36" height="110" x="182" y="0" rx="20" ry="20"
            fill="rgba(24,144,255,.76)"
            stroke="none"
            stroke-width="0" 
            transform="rotate(-90)" 
            transform-origin="200 200"
        />
        <rect width="36" height="110" x="182" y="0" rx="20" ry="20"
            fill="rgba(24,144,255,.68)"
            stroke="none"
            stroke-width="0" 
            transform="rotate(-120)" 
            transform-origin="200 200"
        />
        <rect width="36" height="110" x="182" y="0" rx="20" ry="20"
            fill="rgba(24,144,255,.6)"
            stroke="none"
            stroke-width="0" 
            transform="rotate(-150)" 
            transform-origin="200 200"
        />
        <rect width="36" height="110" x="182" y="0" rx="20" ry="20"
            fill="rgba(24,144,255,.52)"
            stroke="none"
            stroke-width="0" 
            transform="rotate(-180)" 
            transform-origin="200 200"
        />
        <rect width="36" height="110" x="182" y="0" rx="20" ry="20"
            fill="rgba(24,144,255,.44)"
            stroke="none"
            stroke-width="0" 
            transform="rotate(-210)" 
            transform-origin="200 200"
        />
        <rect width="36" height="110" x="182" y="0" rx="20" ry="20"
            fill="rgba(24,144,255,.36)"
            stroke="none"
            stroke-width="0" 
            transform="rotate(-240)" 
            transform-origin="200 200"
        />
        <rect width="36" height="110" x="182" y="0" rx="20" ry="20"
            fill="rgba(24,144,255,.28)"
            stroke="none"
            stroke-width="0" 
            transform="rotate(-270)" 
            transform-origin="200 200"
        />
        <rect width="36" height="110" x="182" y="0" rx="20" ry="20"
            fill="rgba(24,144,255,.2)"
            stroke="none"
            stroke-width="0" 
            transform="rotate(-300)" 
            transform-origin="200 200"
        />
        <rect width="36" height="110" x="182" y="0" rx="20" ry="20"
            fill="rgba(24,144,255,.12)"
            stroke="none"
            stroke-width="0" 
            transform="rotate(-330)" 
            transform-origin="200 200"
        />
    </g>
</svg>